<?xml version="1.0" encoding="UTF-8" standalone="no"?>
<!-- Created with Inkscape (http://www.inkscape.org/) -->

<svg
   xmlns:dc="http://purl.org/dc/elements/1.1/"
   xmlns:cc="http://creativecommons.org/ns#"
   xmlns:rdf="http://www.w3.org/1999/02/22-rdf-syntax-ns#"
   xmlns:svg="http://www.w3.org/2000/svg"
   xmlns="http://www.w3.org/2000/svg"
   xmlns:sodipodi="http://sodipodi.sourceforge.net/DTD/sodipodi-0.dtd"
   xmlns:inkscape="http://www.inkscape.org/namespaces/inkscape"
   width="102.3716mm"
   height="144.49777mm"
   viewBox="0 0 362.73401 511.99998"
   id="svg3476"
   version="1.1"
   inkscape:version="0.91 r13725"
   sodipodi:docname="CSS3_logo_and_wordmark.svg">
  <defs
     id="defs3478" />
  <sodipodi:namedview
     id="base"
     pagecolor="#ffffff"
     bordercolor="#666666"
     borderopacity="1.0"
     inkscape:pageopacity="0.0"
     inkscape:pageshadow="2"
     inkscape:zoom="1.979899"
     inkscape:cx="257.71144"
     inkscape:cy="413.51937"
     inkscape:document-units="px"
     inkscape:current-layer="layer1"
     showgrid="false"
     fit-margin-top="0"
     fit-margin-left="0"
     fit-margin-right="0"
     fit-margin-bottom="0"
     inkscape:window-width="1680"
     inkscape:window-height="988"
     inkscape:window-x="1592"
     inkscape:window-y="-8"
     inkscape:window-maximized="1" />
  <metadata
     id="metadata3481">
    <rdf:RDF>
      <cc:Work
         rdf:about="">
        <dc:format>image/svg+xml</dc:format>
        <dc:type
           rdf:resource="http://purl.org/dc/dcmitype/StillImage" />
        <dc:title />
      </cc:Work>
    </rdf:RDF>
  </metadata>
  <g
     inkscape:label="Calque 1"
     inkscape:groupmode="layer"
     id="layer1"
     transform="translate(-193.633,-276.3622)">
    <g
       id="g3013"
       transform="translate(213.28571,306.3622)"
       style="fill:#ffffff;fill-opacity:1"
       inkscape:export-xdpi="90"
       inkscape:export-ydpi="90">
      <path
         style="fill:#ffffff;fill-opacity:1"
         d="M 74.63245,100.61914 107.64417,470.87695 253.77893,512 404.3219,470.81836 437.36682,100.61914 Z m 181.13495,75.47972 -0.38741,-44.9669 150.88917,-0.23743 -28.23828,316.35156 -122.03125,33.27735 -0.0344,-47.32989 -93.44337,-25.77229 -6.12197,-71.11045 45.64028,-0.0694 3.22337,36.29671 50.55639,13.967 -0.25272,-73.01171 -101.27386,0.18396 -3.8058,-45.41645 105.27487,0.0648 0.10984,-46.51374 -109.75891,-0.29562 -4.08271,-45.31527 z"
         id="polygon2989"
         inkscape:connector-curvature="0"
         sodipodi:nodetypes="ccccccccccccccccccccccccc"
         inkscape:export-xdpi="90"
         inkscape:export-ydpi="90" />
      <g
         id="g8110"
         style="opacity:0.831;fill-opacity:1"
         transform="translate(0.2857101,5e-7)">
        <polygon
           style="opacity:0.2;fill-opacity:1"
           points="150.31,268.217 154.38,313.627 256,313.627 256,268.217 "
           id="polygon2993"
           inkscape:export-xdpi="90"
           inkscape:export-ydpi="90" />
        <polygon
           style="opacity:0.2;fill-opacity:1"
           points="256,221.716 256,176.305 255.843,176.305 142.132,176.305 146.26,221.716 "
           id="polygon2995"
           inkscape:export-xdpi="90"
           inkscape:export-ydpi="90" />
        <polygon
           style="opacity:0.2;fill-opacity:1"
           points="156.409,336.333 162.771,407.634 255.791,433.457 256,433.399 256,386.153 255.801,386.206 205.227,372.55 201.994,336.333 177.419,336.333 "
           id="polygon2997"
           inkscape:export-xdpi="90"
           inkscape:export-ydpi="90" />
      </g>
      <path
         id="path2999"
         d="m 160,0 55,0 0,23 -32,0 0,23 32,0 0,23 -55,0 z"
         inkscape:connector-curvature="0"
         style="fill:#ffffff;fill-opacity:1"
         inkscape:export-xdpi="90"
         inkscape:export-ydpi="90" />
      <path
         id="path3001"
         d="m 226,0 55,0 0,20 -32,0 0,4 32,0 0,46 -55,0 0,-21 32,0 0,-4 -32,0 z"
         inkscape:connector-curvature="0"
         style="fill:#ffffff;fill-opacity:1"
         inkscape:export-xdpi="90"
         inkscape:export-ydpi="90" />
      <path
         id="path3003"
         d="m 292,0 55,0 0,20 -32,0 0,4 32,0 0,46 -55,0 0,-21 32,0 0,-4 -32,0 z"
         inkscape:connector-curvature="0"
         style="fill:#ffffff;fill-opacity:1"
         inkscape:export-xdpi="90"
         inkscape:export-ydpi="90" />
    </g>
    <g
       id="g8105"
       inkscape:export-xdpi="90"
       inkscape:export-ydpi="90">
      <path
         sodipodi:nodetypes="ccccccccc"
         inkscape:connector-curvature="0"
         id="rect8084"
         d="m 467.98745,436.83134 150.89153,-0.28411 -27.58979,317.06162 -122.03905,33.30347 0.0933,-47.44261 92.97671,-25.62387 20.6117,-231.14516 -114.14922,-0.0689 z"
         style="opacity:0.8;fill:#ffffff;fill-opacity:1;fill-rule:evenodd;stroke:none;stroke-width:2.05800009;stroke-miterlimit:4;stroke-dasharray:none;stroke-opacity:1"
         inkscape:export-xdpi="90"
         inkscape:export-ydpi="90" />
      <path
         sodipodi:nodetypes="ccccc"
         inkscape:connector-curvature="0"
         id="rect8087"
         d="m 468.64703,619.91925 56.31601,-0.25254 -5.05077,59.09393 -51.0127,13.8896 z"
         style="opacity:0.8;fill:#ffffff;fill-opacity:1;fill-rule:evenodd;stroke:none;stroke-width:2.05800009;stroke-miterlimit:4;stroke-dasharray:none;stroke-opacity:1"
         inkscape:export-xdpi="90"
         inkscape:export-ydpi="90" />
      <path
         sodipodi:nodetypes="ccccc"
         inkscape:connector-curvature="0"
         id="rect8087-0"
         d="m 469.25806,528.31835 63.78538,-0.34445 -4.15792,46.59393 -59.94127,-0.039 z"
         style="opacity:0.8;fill:#ffffff;fill-opacity:1;fill-rule:evenodd;stroke:none;stroke-width:2.05800009;stroke-miterlimit:4;stroke-dasharray:none;stroke-opacity:1"
         inkscape:export-xdpi="90"
         inkscape:export-ydpi="90" />
    </g>
  </g>
</svg>
