<?xml version="1.0" encoding="UTF-8" standalone="no"?>
<!-- Generator: Adobe Illustrator 18.1.1, SVG Export Plug-In . SVG Version: 6.00 Build 0)  -->

<svg
   xmlns:dc="http://purl.org/dc/elements/1.1/"
   xmlns:cc="http://creativecommons.org/ns#"
   xmlns:rdf="http://www.w3.org/1999/02/22-rdf-syntax-ns#"
   xmlns:svg="http://www.w3.org/2000/svg"
   xmlns="http://www.w3.org/2000/svg"
   xmlns:sodipodi="http://sodipodi.sourceforge.net/DTD/sodipodi-0.dtd"
   xmlns:inkscape="http://www.inkscape.org/namespaces/inkscape"
   version="1.1"
   id="Capa_1"
   x="0px"
   y="0px"
   viewBox="0 0 16.594 16.594"
   style="enable-background:new 0 0 16.594 16.594;"
   xml:space="preserve"
   inkscape:version="0.91 r13725"
   sodipodi:docname="forklift.svg"><metadata
     id="metadata49"><rdf:RDF><cc:Work
         rdf:about=""><dc:format>image/svg+xml</dc:format><dc:type
           rdf:resource="http://purl.org/dc/dcmitype/StillImage" /></cc:Work></rdf:RDF></metadata><defs
     id="defs47" /><sodipodi:namedview
     pagecolor="#ffffff"
     bordercolor="#666666"
     borderopacity="1"
     objecttolerance="10"
     gridtolerance="10"
     guidetolerance="10"
     inkscape:pageopacity="0"
     inkscape:pageshadow="2"
     inkscape:window-width="1680"
     inkscape:window-height="988"
     id="namedview45"
     showgrid="false"
     inkscape:zoom="3.555502"
     inkscape:cx="0.74470217"
     inkscape:cy="-63.534663"
     inkscape:window-x="1592"
     inkscape:window-y="-8"
     inkscape:window-maximized="1"
     inkscape:current-layer="Capa_1" /><g
     id="g3"
     transform="matrix(12.293398,0,0,17.741136,-112.0095,-116.41977)"
     style="fill:#ffffff;fill-opacity:1"
     inkscape:export-xdpi="90"
     inkscape:export-ydpi="90"><g
       id="g5"
       style="fill:#ffffff;fill-opacity:1"><path
         style="fill:#ffffff;fill-opacity:1"
         d="m 9.35,9.147 c 0,0 -0.717,-6.853 -3.416,-6.853 -3.067,0 -4.335,0 -4.335,0 l 0,6.303 c -0.474,0 -0.87,0 -1.107,0 -1.107,0 0,3.918 0,3.918 l 0.687,0 c 0.047,-0.973 0.852,-1.751 1.838,-1.751 0.985,0 1.79,0.778 1.837,1.751 l 2.241,0 C 7.094,12.506 7.093,12.498 7.093,12.489 c 0,-1.079 0.88,-1.958 1.96,-1.958 1.079,0 1.958,0.879 1.958,1.958 0,0.126 -0.013,0.248 -0.035,0.367 l 0.693,0 -1.154,-3.624 C 9.456,9.829 9.35,9.147 9.35,9.147 Z M 5.859,9.364 4.837,7.575 l -2.215,0 0,-4.258 3.129,0 c 0.914,0 1.419,1.273 1.683,2.342 0.168,0.683 0.685,3.164 0.731,3.706 l -2.306,0 0,-10e-4 z"
         id="path7"
         inkscape:connector-curvature="0" /><path
         style="fill:#ffffff;fill-opacity:1"
         d="m 9.062,10.758 c -0.939,0 -1.7,0.762 -1.7,1.7 0,0.939 0.761,1.7 1.7,1.7 0.938,0 1.7,-0.761 1.7,-1.7 0,-0.938 -0.762,-1.7 -1.7,-1.7 z m 0,2.686 c -0.543,0 -0.985,-0.442 -0.985,-0.985 0,-0.543 0.442,-0.984 0.985,-0.984 0.543,0 0.984,0.441 0.984,0.984 0,0.543 -0.441,0.985 -0.984,0.985 z"
         id="path9"
         inkscape:connector-curvature="0" /><path
         style="fill:#ffffff;fill-opacity:1"
         d="m 2.969,11.069 c -0.893,0 -1.616,0.725 -1.616,1.616 0,0.891 0.723,1.615 1.616,1.615 0.891,0 1.615,-0.725 1.615,-1.615 C 4.583,11.794 3.86,11.069 2.969,11.069 Z m 0,2.551 c -0.516,0 -0.935,-0.419 -0.935,-0.935 0,-0.516 0.419,-0.937 0.935,-0.937 0.515,0 0.935,0.421 0.935,0.937 0,0.516 -0.421,0.935 -0.935,0.935 z"
         id="path11"
         inkscape:connector-curvature="0" /><path
         style="fill:#ffffff;fill-opacity:1"
         d="M 16.575,10.841 C 16.512,10.649 16.304,10.543 16.114,10.608 L 12.57,11.775 9.507,2.573 C 9.443,2.381 9.236,2.279 9.043,2.342 8.851,2.406 8.747,2.613 8.812,2.805 l 3.18,9.548 c 0.052,0.153 0.193,0.25 0.348,0.25 0.038,0 0.076,-0.006 0.114,-0.018 l 3.89,-1.282 c 0.191,-0.064 0.296,-0.27 0.231,-0.462 z"
         id="path13"
         inkscape:connector-curvature="0" /></g></g><g
     id="g15"
     inkscape:export-xdpi="90"
     inkscape:export-ydpi="90" /><g
     id="g17"
     inkscape:export-xdpi="90"
     inkscape:export-ydpi="90" /><g
     id="g19"
     inkscape:export-xdpi="90"
     inkscape:export-ydpi="90" /><g
     id="g21"
     inkscape:export-xdpi="90"
     inkscape:export-ydpi="90" /><g
     id="g23"
     inkscape:export-xdpi="90"
     inkscape:export-ydpi="90" /><g
     id="g25"
     inkscape:export-xdpi="90"
     inkscape:export-ydpi="90" /><g
     id="g27"
     inkscape:export-xdpi="90"
     inkscape:export-ydpi="90" /><g
     id="g29"
     inkscape:export-xdpi="90"
     inkscape:export-ydpi="90" /><g
     id="g31"
     inkscape:export-xdpi="90"
     inkscape:export-ydpi="90" /><g
     id="g33"
     inkscape:export-xdpi="90"
     inkscape:export-ydpi="90" /><g
     id="g35"
     inkscape:export-xdpi="90"
     inkscape:export-ydpi="90" /><g
     id="g37"
     inkscape:export-xdpi="90"
     inkscape:export-ydpi="90" /><g
     id="g39"
     inkscape:export-xdpi="90"
     inkscape:export-ydpi="90" /><g
     id="g41"
     inkscape:export-xdpi="90"
     inkscape:export-ydpi="90" /><g
     id="g43"
     inkscape:export-xdpi="90"
     inkscape:export-ydpi="90" /></svg>