<?xml version="1.0" encoding="UTF-8" standalone="no"?>
<svg
   xmlns:dc="http://purl.org/dc/elements/1.1/"
   xmlns:cc="http://creativecommons.org/ns#"
   xmlns:rdf="http://www.w3.org/1999/02/22-rdf-syntax-ns#"
   xmlns:svg="http://www.w3.org/2000/svg"
   xmlns="http://www.w3.org/2000/svg"
   xmlns:sodipodi="http://sodipodi.sourceforge.net/DTD/sodipodi-0.dtd"
   xmlns:inkscape="http://www.inkscape.org/namespaces/inkscape"
   version="1.1"
   id="Layer_1"
   x="0px"
   y="0px"
   width="512px"
   height="512px"
   viewBox="0 0 512 512"
   enable-background="new 0 0 512 512"
   xml:space="preserve"
   inkscape:version="0.91 r13725"
   sodipodi:docname="html5-white.svg"
   inkscape:export-filename="C:\Users\Al\Documents\Online resume\img\html5-white.png"
   inkscape:export-xdpi="90"
   inkscape:export-ydpi="90"><metadata
     id="metadata29"><rdf:RDF><cc:Work
         rdf:about=""><dc:format>image/svg+xml</dc:format><dc:type
           rdf:resource="http://purl.org/dc/dcmitype/StillImage" /></cc:Work></rdf:RDF></metadata><defs
     id="defs27" /><sodipodi:namedview
     pagecolor="#ffffff"
     bordercolor="#666666"
     borderopacity="1"
     objecttolerance="10"
     gridtolerance="10"
     guidetolerance="10"
     inkscape:pageopacity="0"
     inkscape:pageshadow="2"
     inkscape:window-width="824"
     inkscape:window-height="972"
     id="namedview25"
     showgrid="false"
     inkscape:zoom="0.65186406"
     inkscape:cx="267.11382"
     inkscape:cy="298.75479"
     inkscape:window-x="2440"
     inkscape:window-y="0"
     inkscape:window-maximized="0"
     inkscape:current-layer="g3" /><rect
     style="opacity:0.93000016;fill:#840405;fill-opacity:1;fill-rule:evenodd;stroke:#840405;stroke-width:2.05800009;stroke-miterlimit:4;stroke-dasharray:none;stroke-opacity:0.99408288"
     id="rect8075"
     width="939.38983"
     height="813.55933"
     x="-201.76271"
     y="-112.81356" /><g
     id="g3"><g
       id="g5"><path
         d="M119.387,20.312h21.298v21.045h19.485V20.312h21.303v63.727H160.17V62.7h-19.485v21.338h-21.298V20.312z"
         id="path7"
         fill="#FFFFFF" /><path
         d="M209.482,41.444h-18.754V20.312h58.812v21.133h-18.759v42.594h-21.3V41.444z"
         id="path9"
         fill="#FFFFFF" /><path
         d="M258.879,20.312h22.21l13.661,22.392l13.648-22.392h22.219v63.727h-21.212V52.453L294.75,75.111h-0.366    l-14.665-22.658v31.585h-20.84V20.312z"
         id="path11"
         fill="#FFFFFF" /><path
         d="M341.219,20.312h21.308v42.664h29.955v21.062h-51.263V20.312z"
         id="path13"
         fill="#FFFFFF" /></g><path
       d="m 224.55733,-25.096431 55.338,0 0,-42.92 -59.169,0 3.831,42.92 z m -111.976,-154.693999 30.47,341.74 136.762,37.966 136.891,-37.948 30.507,-341.758 -334.63,0 z m 278.008,319.999 -110.694,30.687 0,-43.494 -0.067,0.02 -85.858,-23.835 -6.004,-67.298001 42.075,0 3.116,34.914 46.68,12.607 0.059,-0.019 0,-66.973 -93.669,0 -11.306,-126.748999 104.974,0 0,-41.914 136.766,0 -26.072,292.054 z"
       id="path15"
       inkscape:connector-curvature="0"
       style="fill:#ffffff" /><path
       d="m 330.69546,280.97688 -51.59201,0 0,66.974 46.72801,-12.613 4.864,-54.361 z m -51.59201,-168.663 0,41.914 104.97501,0 -3.754,41.915 -101.22101,0 0,42.92 97.40601,0 -11.499,128.683 -85.90701,23.815 0,43.494 110.69401,-30.687 26.071,-292.055 -136.76501,0 z"
       id="path17"
       inkscape:connector-curvature="0"
       style="opacity:0.8;fill:#ffffff" /><g
       id="g19"
       style="opacity:0.2;fill-opacity:1"
       transform="translate(-93.577792,6.1362444)"><polygon
         points="162.331,308.59 256,308.59 256,266.676 200.662,266.676 196.831,223.756 256,223.756 256,181.841 151.025,181.841 "
         id="polygon21"
         style="fill:#ffffff;fill-opacity:1" /><polygon
         points="209.262,362.975 206.146,328.061 164.07,328.061 170.074,395.358 255.933,419.193 256,419.174 256,375.563 255.941,375.582 "
         id="polygon23"
         style="fill:#ffffff;fill-opacity:1" /></g></g></svg>