<?xml version="1.0" encoding="utf-8"?>
<!-- Generator: Adobe Illustrator 21.0.0, SVG Export Plug-In . SVG Version: 6.00 Build 0)  -->
<svg version="1.1" id="LinkedIn_w_x2F__circle" xmlns="http://www.w3.org/2000/svg" xmlns:xlink="http://www.w3.org/1999/xlink"
	 x="0px" y="0px" viewBox="0 0 20 20" style="enable-background:new 0 0 20 20;" xml:space="preserve">
<style type="text/css">
	.st0{fill:#FFFFFF;}
</style>
<path class="st0" d="M-10.6,0.4c-16.7,0-30.2,13.8-30.2,30.9s13.5,30.9,30.2,30.9s30.2-13.8,30.2-30.9S6.1,0.4-10.6,0.4z M-18,44.1
	h-6.1V24h6.1V44.1z M-21.1,21.5c-1.9,0-3.2-1.4-3.2-3.1c0-1.8,1.3-3.1,3.3-3.1c2,0,3.2,1.4,3.2,3.1C-17.8,20.1-19.1,21.5-21.1,21.5z
	 M4.3,44.1h-6.1V33c0-2.6-0.9-4.4-3.1-4.4c-1.7,0-2.7,1.2-3.1,2.3c-0.2,0.4-0.2,1-0.2,1.6v11.6h-6.1V30.4c0-2.5-0.1-4.6-0.2-6.4h5.3
	l0.3,2.8h0.1c0.8-1.3,2.8-3.3,6.1-3.3c4,0,7,2.8,7,8.7V44.1z"/>
</svg>
