<?xml version="1.0" encoding="utf-8"?>
<!-- Generator: Adobe Illustrator 21.0.0, SVG Export Plug-In . SVG Version: 6.00 Build 0)  -->
<svg version="1.1" id="Star_outlined" xmlns="http://www.w3.org/2000/svg" xmlns:xlink="http://www.w3.org/1999/xlink" x="0px"
	 y="0px" viewBox="0 0 20 20" style="enable-background:new 0 0 20 20;" xml:space="preserve">
<style type="text/css">
	.st0{fill:#FFFFFF;}
</style>
<path class="st0" d="M564,51.7l-62.3,42.6l24,74.8l-66.3-44.9L394.8,169l21-74.8L352,51.7h77.1L456.6-21l30,72.6H564z M459.2,117.1
	l55.2,36.8l-19.2-62l52.4-35.6L483,57.2L456.9-5.9l-22.4,63.3l-64.4-0.2l51.7,34.7L404,155.4L459.2,117.1z"/>
<path class="st0" d="M238.8-21l27.7,72.6H341l-60.8,42.6l21.7,74.8l-63.2-44.8L175.6,169l21.7-74.8l-60.8-42.6H211L238.8-21z"/>
<path class="st0" d="M-191.6-21l27.7,72.6h74.5l-60.8,42.6l21.7,74.8l-63.2-44.8l-63.2,44.8l21.7-74.8l-60.8-42.6h74.5L-191.6-21z"
	/>
<path class="st0" d="M23.8-21l27.7,72.6H126L65.2,94.2L86.9,169l-63.2-44.8L-39.4,169l21.7-74.8l-60.8-42.6H-4L23.8-21z"/>
<path class="st0" d="M-407.2-21l27.7,72.6h74.5l-60.8,42.6l21.7,74.8l-63.2-44.8l-63.2,44.8l21.7-74.8l-60.8-42.6h74.5L-407.2-21z"
	/>
</svg>
